# xmcd CD database file
#
# Track frame offsets:
#	150
#	35466
#	63607
#	81473
#	106396
#	145893
#	173272
#	208144
#	227598
#	256588
#	278878
#
# Disc length: 4144 seconds
#
# Revision: 0
# Processed by: cddbd v1.5.1PL0 Copyright (c) Steve Scherf et al.
# Submitted via: CDex 1.51
#
DISCID=95102e0b
DTITLE=Jaga Jazzist - What We Must
DYEAR=2005
DGENRE=Jazz
TTITLE0=All I Know Is Tonight
TTITLE1=Stardust Hotel
TTITLE2=For All You Happy People
TTITLE3=Oslo Skyline
TTITLE4=Swedenborgske Rom
TTITLE5=Mikado
TTITLE6=I Have A Ghost, Now What?
TTITLE7=Mikado (Demo)
TTITLE8=All I Know Is Tonight (Demo)
TTITLE9=Stardust Hotel (Demo)
TTITLE10=Swedenborgske Rom (Demo)
EXTD=YEAR: 2005
EXTT0=
EXTT1=
EXTT2=
EXTT3=
EXTT4=
EXTT5=
EXTT6=
EXTT7=
EXTT8=
EXTT9=
EXTT10=
PLAYORDER=
